<svg xmlns="http://www.w3.org/2000/svg" viewBox="0 0 512 512">
  <rect width="512" height="512" rx="112" fill="#f7f1df"/>
  <circle cx="256" cy="256" r="190" fill="#10231b"/>
  <path d="M256 94c64 82 118 156 118 226 0 72-51 118-118 118s-118-46-118-118c0-70 54-144 118-226z" fill="#c99a2e"/>
  <path d="M256 142c42 61 78 113 78 162 0 47-31 76-78 76s-78-29-78-76c0-49 36-101 78-162z" fill="#497b5a"/>
  <path d="M252 232c-30 36-46 69-46 99 0 31 20 51 50 51 12 0 23-3 32-9-64-8-54-90-36-141z" fill="#fffdf5" opacity=".32"/>
</svg>
